<mxfile modified="2022-05-20T01:24:33.407Z" host="app.diagrams.net" agent="5.0 (Windows NT 10.0; Win64; x64) AppleWebKit/537.36 (KHTML, like Gecko) Chrome/101.0.4951.54 Safari/537.36" etag="cFhCo5DWayOiqCuUJHwj" compressed="false" version="18.0.8" type="google">
  <diagram name="Functionality/System Logical Module/Commands" id="F5kAjeW99w77yjmkxbTQ">
    <mxGraphModel grid="1" page="1" gridSize="10" guides="1" tooltips="1" connect="1" arrows="1" fold="1" pageScale="1" pageWidth="827" pageHeight="1169" math="0" shadow="0">
      <root>
        <mxCell id="CgTp9Q54tOmcQMTsVTTI-0" />
        <mxCell id="CgTp9Q54tOmcQMTsVTTI-20" value="Diagram/Use Cases" parent="CgTp9Q54tOmcQMTsVTTI-0" />
        <mxCell id="CgTp9Q54tOmcQMTsVTTI-6" value="" style="endArrow=block;endFill=0;endSize=12;html=1;strokeColor=#000000;fontSize=12;" edge="1" parent="CgTp9Q54tOmcQMTsVTTI-20">
          <mxGeometry width="160" relative="1" as="geometry">
            <mxPoint x="140" y="340" as="sourcePoint" />
            <mxPoint x="140" y="300" as="targetPoint" />
          </mxGeometry>
        </mxCell>
        <mxCell id="CgTp9Q54tOmcQMTsVTTI-7" value="Authorised&lt;br style=&quot;font-size: 12px;&quot;&gt;User" style="shape=umlActor;verticalLabelPosition=bottom;labelBackgroundColor=#ffffff;verticalAlign=top;html=1;comic=0;strokeColor=#000000;strokeWidth=1;fillColor=none;gradientColor=#ffffff;fontSize=12;align=center;" vertex="1" parent="CgTp9Q54tOmcQMTsVTTI-20">
          <mxGeometry x="130" y="370" width="20" height="40" as="geometry" />
        </mxCell>
        <mxCell id="CgTp9Q54tOmcQMTsVTTI-8" value="" style="endArrow=open;endFill=1;endSize=12;html=1;strokeColor=#000000;fontSize=12;entryX=0;entryY=0.5;entryDx=0;entryDy=0;" edge="1" parent="CgTp9Q54tOmcQMTsVTTI-20" target="CgTp9Q54tOmcQMTsVTTI-22">
          <mxGeometry width="160" relative="1" as="geometry">
            <mxPoint x="160" y="400" as="sourcePoint" />
            <mxPoint x="250" y="410" as="targetPoint" />
          </mxGeometry>
        </mxCell>
        <mxCell id="CgTp9Q54tOmcQMTsVTTI-11" value="" style="endArrow=open;endFill=1;endSize=12;html=1;strokeColor=#000000;fontSize=12;entryX=0;entryY=0.5;entryDx=0;entryDy=0;" edge="1" parent="CgTp9Q54tOmcQMTsVTTI-20" target="CgTp9Q54tOmcQMTsVTTI-25">
          <mxGeometry width="160" relative="1" as="geometry">
            <mxPoint x="160" y="540" as="sourcePoint" />
            <mxPoint x="261.7157287525381" y="434.14213562373095" as="targetPoint" />
          </mxGeometry>
        </mxCell>
        <mxCell id="pifXXTZDhYLd1Hid2PDg-0" value="Add a processed Serialized Command&lt;br style=&quot;font-size: 12px;&quot;&gt;to the Command Log" style="ellipse;whiteSpace=wrap;html=1;comic=1;strokeColor=#000000;strokeWidth=1;fillColor=none;gradientColor=#ffffff;fontSize=12;align=center;" vertex="1" parent="CgTp9Q54tOmcQMTsVTTI-20">
          <mxGeometry x="240" y="240" width="120" height="40" as="geometry" />
        </mxCell>
        <mxCell id="pifXXTZDhYLd1Hid2PDg-1" value="" style="endArrow=block;endFill=0;endSize=12;html=1;strokeColor=#000000;fontSize=12;" edge="1" parent="CgTp9Q54tOmcQMTsVTTI-20">
          <mxGeometry width="160" relative="1" as="geometry">
            <mxPoint x="140" y="520" as="sourcePoint" />
            <mxPoint x="140" y="450" as="targetPoint" />
          </mxGeometry>
        </mxCell>
        <mxCell id="pifXXTZDhYLd1Hid2PDg-4" value="Restore DB and re-process &#39;new&#39; Commands" style="ellipse;whiteSpace=wrap;html=1;comic=1;strokeColor=#000000;strokeWidth=1;fillColor=none;gradientColor=#ffffff;fontSize=12;align=center;" vertex="1" parent="CgTp9Q54tOmcQMTsVTTI-20">
          <mxGeometry x="240" y="640" width="120" height="40" as="geometry" />
        </mxCell>
        <mxCell id="pifXXTZDhYLd1Hid2PDg-5" value="System&lt;br style=&quot;font-size: 12px;&quot;&gt;Administrator" style="shape=umlActor;verticalLabelPosition=bottom;labelBackgroundColor=#ffffff;verticalAlign=top;html=1;comic=0;strokeColor=#000000;strokeWidth=1;fillColor=none;gradientColor=#ffffff;fontSize=12;align=center;" vertex="1" parent="CgTp9Q54tOmcQMTsVTTI-20">
          <mxGeometry x="130" y="640" width="20" height="40" as="geometry" />
        </mxCell>
        <mxCell id="pifXXTZDhYLd1Hid2PDg-6" value="" style="endArrow=open;endFill=1;endSize=12;html=1;strokeColor=#000000;fontSize=12;entryX=0;entryY=0.5;entryDx=0;entryDy=0;" edge="1" parent="CgTp9Q54tOmcQMTsVTTI-20" target="pifXXTZDhYLd1Hid2PDg-4">
          <mxGeometry width="160" relative="1" as="geometry">
            <mxPoint x="160" y="670" as="sourcePoint" />
            <mxPoint x="250.0000000000001" y="440" as="targetPoint" />
          </mxGeometry>
        </mxCell>
        <mxCell id="dTY18OchVnFj4Myb8gLv-2" value="" style="endArrow=open;endFill=1;endSize=12;html=1;strokeColor=#000000;fontSize=12;entryX=0;entryY=0.5;entryDx=0;entryDy=0;" edge="1" parent="CgTp9Q54tOmcQMTsVTTI-20" target="dTY18OchVnFj4Myb8gLv-3">
          <mxGeometry width="160" relative="1" as="geometry">
            <mxPoint x="160" y="400" as="sourcePoint" />
            <mxPoint x="240" y="600" as="targetPoint" />
          </mxGeometry>
        </mxCell>
        <mxCell id="dTY18OchVnFj4Myb8gLv-3" value="Retrieve a list of unprocessed Commands and their Status" style="ellipse;whiteSpace=wrap;html=1;comic=1;strokeColor=#000000;strokeWidth=1;fillColor=none;gradientColor=#ffffff;fontSize=12;align=center;" vertex="1" parent="CgTp9Q54tOmcQMTsVTTI-20">
          <mxGeometry x="240" y="400" width="120" height="40" as="geometry" />
        </mxCell>
        <mxCell id="CgTp9Q54tOmcQMTsVTTI-21" value="User" style="shape=umlActor;verticalLabelPosition=bottom;labelBackgroundColor=#ffffff;verticalAlign=top;html=1;comic=0;strokeColor=#000000;strokeWidth=1;fillColor=none;gradientColor=#ffffff;fontSize=12;align=center;" vertex="1" parent="CgTp9Q54tOmcQMTsVTTI-20">
          <mxGeometry x="130" y="230" width="20" height="40" as="geometry" />
        </mxCell>
        <mxCell id="CgTp9Q54tOmcQMTsVTTI-22" value="Add an unprocessed Command&lt;br style=&quot;font-size: 12px;&quot;&gt;to the Command Queue" style="ellipse;whiteSpace=wrap;html=1;comic=1;strokeColor=#000000;strokeWidth=1;fillColor=none;gradientColor=#ffffff;fontSize=12;align=center;" vertex="1" parent="CgTp9Q54tOmcQMTsVTTI-20">
          <mxGeometry x="240" y="320" width="120" height="40" as="geometry" />
        </mxCell>
        <mxCell id="CgTp9Q54tOmcQMTsVTTI-23" value="" style="endArrow=open;endFill=1;endSize=12;html=1;strokeColor=#000000;fontSize=12;" edge="1" parent="CgTp9Q54tOmcQMTsVTTI-20">
          <mxGeometry width="160" relative="1" as="geometry">
            <mxPoint x="160" y="260" as="sourcePoint" />
            <mxPoint x="230" y="260" as="targetPoint" />
            <Array as="points">
              <mxPoint x="200" y="260" />
            </Array>
          </mxGeometry>
        </mxCell>
        <mxCell id="CgTp9Q54tOmcQMTsVTTI-24" value="Daemon" style="shape=umlActor;verticalLabelPosition=bottom;labelBackgroundColor=#ffffff;verticalAlign=top;html=1;comic=0;strokeColor=#000000;strokeWidth=1;fillColor=none;gradientColor=#ffffff;fontSize=12;align=center;" vertex="1" parent="CgTp9Q54tOmcQMTsVTTI-20">
          <mxGeometry x="130" y="520" width="20" height="40" as="geometry" />
        </mxCell>
        <mxCell id="CgTp9Q54tOmcQMTsVTTI-25" value="Process recorded items in the Command Queue" style="ellipse;whiteSpace=wrap;html=1;comic=1;strokeColor=#000000;strokeWidth=1;fillColor=none;gradientColor=#ffffff;fontSize=12;align=center;" vertex="1" parent="CgTp9Q54tOmcQMTsVTTI-20">
          <mxGeometry x="240" y="520" width="120" height="40" as="geometry" />
        </mxCell>
        <mxCell id="KRe66dV1GdynZRnllPMa-0" value="Title/Diagram" parent="CgTp9Q54tOmcQMTsVTTI-0" />
        <mxCell id="KRe66dV1GdynZRnllPMa-1" value="&lt;font style=&quot;font-size: 12px&quot;&gt;&lt;span&gt;Diagram: Base&amp;nbsp;&lt;/span&gt;System&amp;nbsp;&lt;span&gt;Logical Module -&amp;nbsp;&lt;/span&gt;&lt;span&gt;Functionality -&amp;nbsp;&lt;/span&gt;System Commands&amp;nbsp;&lt;/font&gt;" style="text;strokeColor=none;fillColor=none;html=1;fontSize=10;fontStyle=2;verticalAlign=middle;align=left;shadow=0;glass=0;comic=0;opacity=30;fontColor=#808080;" vertex="1" parent="KRe66dV1GdynZRnllPMa-0">
          <mxGeometry x="120" y="740" width="520" height="20" as="geometry" />
        </mxCell>
        <mxCell id="CgTp9Q54tOmcQMTsVTTI-1" value="About" parent="CgTp9Q54tOmcQMTsVTTI-0" />
        <UserObject label="" tooltip="ABOUT&#xa;&#xa;In systems that manipulate Agreements (whether that be Contract statements, asset or currency transactions, etc.) the operations must be handled via an Operation Track. &#xa;This is non-negotiable, as there is a large probability that at some point an error in logic will be introduced with a new feature, discovered later, and operations have be rewound to be replayed -- this time with the correct maths. Not planning to have this functionality is reputationally damaging -- sometimes leading to organisation failure (nobody likes receiving less money than they feel entitled to). &#xa;" id="ZYVRzOADkmFpmeFIsZps-0">
          <mxCell style="shape=image;html=1;verticalAlign=top;verticalLabelPosition=bottom;labelBackgroundColor=#ffffff;imageAspect=0;aspect=fixed;image=https://cdn1.iconfinder.com/data/icons/hawcons/32/699014-icon-28-information-128.png;shadow=0;dashed=0;fontFamily=Helvetica;fontSize=12;fontColor=#000000;align=center;strokeColor=#000000;fillColor=#505050;dashPattern=1 1;" vertex="1" parent="CgTp9Q54tOmcQMTsVTTI-1">
            <mxGeometry x="660" y="740" width="20" height="20" as="geometry" />
          </mxCell>
        </UserObject>
      </root>
    </mxGraphModel>
  </diagram>
</mxfile>
